# xmcd
#
# Track frame offsets: 
#        150
#        14470
#        24612
#        40052
#        52000
#        62462
#        76180
#        86047
#        97862
#        111140
#        123847
#        137532
#        151265
#        164655
#        177917
#        192227
#        207742
#        221840
#        236082
#        250100
#        262405
#        277665
#        293262
#        304527
#        316007
#
# Disc length: 4423 seconds
#
# Revision: 1
# Processed by: cddbd v1.5.2PL0 Copyright (c) Steve Scherf et al.
# Submitted via: ExactAudioCopyFreeDBPlugin 1.0
#
DISCID=55114519
DTITLE=Joe Tex - 25 All-Time Greatest Hits
DYEAR=2000
DGENRE=Soul
TTITLE0=Hold What You've Got
TTITLE1=You Got What it Takes
TTITLE2=You Better Get It
TTITLE3=A Woman Can Change a Man
TTITLE4=Don't Let Your Left Hand Know
TTITLE5=One Monkey Don't Stop No Show
TTITLE6=I Want To (Do Everything for You)
TTITLE7=A Sweet Woman Like You
TTITLE8=The Love You Save (Might Be Your Own)
TTITLE9=S.Y.S.L.J.F.M. (The Letter Song)
TTITLE10=I Believe I'm Gonna Make It
TTITLE11=I've Got to Do a Little Bit Better
TTITLE12=Papa Was Too
TTITLE13=Show Me
TTITLE14=Woman Like That, Yeah
TTITLE15=A Woman's Hands
TTITLE16=Skinny Legs and All
TTITLE17=Men Are Gettin' Scarce
TTITLE18=I'll Never Do You Wrong
TTITLE19=Keep the One You Got
TTITLE20=You Need Me, Baby
TTITLE21=Buying a Book
TTITLE22=I Gotcha
TTITLE23=You Said a Bad Word
TTITLE24=Ain't Gonna Bump No More
EXTD=
EXTT0=
EXTT1=
EXTT2=
EXTT3=
EXTT4=
EXTT5=
EXTT6=
EXTT7=
EXTT8=
EXTT9=
EXTT10=
EXTT11=
EXTT12=
EXTT13=
EXTT14=
EXTT15=
EXTT16=
EXTT17=
EXTT18=
EXTT19=
EXTT20=
EXTT21=
EXTT22=
EXTT23=
EXTT24=
PLAYORDER=
